<?xml version="1.0" encoding="UTF-8" standalone="no"?>
<!DOCTYPE svg PUBLIC "-//W3C//DTD SVG 1.1//EN"
 "http://www.w3.org/Graphics/SVG/1.1/DTD/svg11.dtd">
<!-- Generated by graphviz version 2.38.0 (20140413.2041)
 -->
<!-- Title: snakemake_dag Pages: 1 -->
<svg width="772pt" height="1196pt"
 viewBox="0.00 0.00 771.50 1196.00" xmlns="http://www.w3.org/2000/svg" xmlns:xlink="http://www.w3.org/1999/xlink">
<g id="graph0" class="graph" transform="scale(1 1) rotate(0) translate(4 1192)">
<title>snakemake_dag</title>
<polygon fill="white" stroke="none" points="-4,4 -4,-1192 767.5,-1192 767.5,4 -4,4"/>
<!-- 0 -->
<g id="node1" class="node"><title>0</title>
<path fill="none" stroke="#56d86b" stroke-width="2" d="M678,-252C678,-252 640,-252 640,-252 634,-252 628,-246 628,-240 628,-240 628,-228 628,-228 628,-222 634,-216 640,-216 640,-216 678,-216 678,-216 684,-216 690,-222 690,-228 690,-228 690,-240 690,-240 690,-246 684,-252 678,-252"/>
<text text-anchor="middle" x="659" y="-231.5" font-family="sans" font-size="10.00">pileup_sh</text>
</g>
<!-- 2 -->
<g id="node3" class="node"><title>2</title>
<path fill="none" stroke="#d86656" stroke-width="2" d="M646.5,-108C646.5,-108 581.5,-108 581.5,-108 575.5,-108 569.5,-102 569.5,-96 569.5,-96 569.5,-84 569.5,-84 569.5,-78 575.5,-72 581.5,-72 581.5,-72 646.5,-72 646.5,-72 652.5,-72 658.5,-78 658.5,-84 658.5,-84 658.5,-96 658.5,-96 658.5,-102 652.5,-108 646.5,-108"/>
<text text-anchor="middle" x="614" y="-87.5" font-family="sans" font-size="10.00">report_html_v2</text>
</g>
<!-- 0&#45;&gt;2 -->
<g id="edge2" class="edge"><title>0&#45;&gt;2</title>
<path fill="none" stroke="grey" stroke-width="2" d="M653.572,-215.871C645.869,-191.564 631.689,-146.819 622.561,-118.013"/>
<polygon fill="grey" stroke="grey" stroke-width="2" points="625.805,-116.665 619.447,-108.189 619.132,-118.779 625.805,-116.665"/>
</g>
<!-- 24 -->
<g id="node25" class="node"><title>24</title>
<path fill="none" stroke="#566bd8" stroke-width="2" d="M592,-36C592,-36 562,-36 562,-36 556,-36 550,-30 550,-24 550,-24 550,-12 550,-12 550,-6 556,-0 562,-0 562,-0 592,-0 592,-0 598,-0 604,-6 604,-12 604,-12 604,-24 604,-24 604,-30 598,-36 592,-36"/>
<text text-anchor="middle" x="577" y="-15.5" font-family="sans" font-size="10.00">all</text>
</g>
<!-- 0&#45;&gt;24 -->
<g id="edge35" class="edge"><title>0&#45;&gt;24</title>
<path fill="none" stroke="grey" stroke-width="2" d="M665.583,-215.619C676.2,-184.489 693.388,-118.163 667,-72 655.607,-52.0685 633.469,-38.8883 614.002,-30.6566"/>
<polygon fill="grey" stroke="grey" stroke-width="2" points="615.015,-27.2946 604.428,-26.8995 612.458,-33.8108 615.015,-27.2946"/>
</g>
<!-- 1 -->
<g id="node2" class="node"><title>1</title>
<path fill="none" stroke="#d85656" stroke-width="2" d="M163,-1044C163,-1044 59,-1044 59,-1044 53,-1044 47,-1038 47,-1032 47,-1032 47,-1020 47,-1020 47,-1014 53,-1008 59,-1008 59,-1008 163,-1008 163,-1008 169,-1008 175,-1014 175,-1020 175,-1020 175,-1032 175,-1032 175,-1038 169,-1044 163,-1044"/>
<text text-anchor="middle" x="111" y="-1023.5" font-family="sans" font-size="10.00">iget_reference_bowtie2</text>
</g>
<!-- 7 -->
<g id="node8" class="node"><title>7</title>
<path fill="none" stroke="#d8b456" stroke-width="2" d="M243,-396C243,-396 163,-396 163,-396 157,-396 151,-390 151,-384 151,-384 151,-372 151,-372 151,-366 157,-360 163,-360 163,-360 243,-360 243,-360 249,-360 255,-366 255,-372 255,-372 255,-384 255,-384 255,-390 249,-396 243,-396"/>
<text text-anchor="middle" x="203" y="-375.5" font-family="sans" font-size="10.00">samtools_mpileup</text>
</g>
<!-- 1&#45;&gt;7 -->
<g id="edge8" class="edge"><title>1&#45;&gt;7</title>
<path fill="none" stroke="grey" stroke-width="2" d="M95.1601,-1007.65C73.6902,-982.273 38,-932.618 38,-883 38,-883 38,-883 38,-521 38,-462.184 98.9765,-422.401 146.793,-400.246"/>
<polygon fill="grey" stroke="grey" stroke-width="2" points="148.464,-403.332 156.159,-396.049 145.602,-396.944 148.464,-403.332"/>
</g>
<!-- 10 -->
<g id="node11" class="node"><title>10</title>
<path fill="none" stroke="#56d8b1" stroke-width="2" d="M349,-108C349,-108 263,-108 263,-108 257,-108 251,-102 251,-96 251,-96 251,-84 251,-84 251,-78 257,-72 263,-72 263,-72 349,-72 349,-72 355,-72 361,-78 361,-84 361,-84 361,-96 361,-96 361,-102 355,-108 349,-108"/>
<text text-anchor="middle" x="306" y="-87.5" font-family="sans" font-size="10.00">bcftools_consensus</text>
</g>
<!-- 1&#45;&gt;10 -->
<g id="edge13" class="edge"><title>1&#45;&gt;10</title>
<path fill="none" stroke="grey" stroke-width="2" d="M84.9754,-1008C52.1672,-984.273 0,-937.916 0,-883 0,-883 0,-883 0,-233 0,-127.686 150.979,-100.259 240.835,-93.2621"/>
<polygon fill="grey" stroke="grey" stroke-width="2" points="241.215,-96.7441 250.94,-92.5409 240.716,-89.7618 241.215,-96.7441"/>
</g>
<!-- 17 -->
<g id="node18" class="node"><title>17</title>
<path fill="none" stroke="#8fd856" stroke-width="2" d="M244,-612C244,-612 116,-612 116,-612 110,-612 104,-606 104,-600 104,-600 104,-588 104,-588 104,-582 110,-576 116,-576 116,-576 244,-576 244,-576 250,-576 256,-582 256,-588 256,-588 256,-600 256,-600 256,-606 250,-612 244,-612"/>
<text text-anchor="middle" x="180" y="-591.5" font-family="sans" font-size="10.00">createsequencedictionnary1</text>
</g>
<!-- 1&#45;&gt;17 -->
<g id="edge22" class="edge"><title>1&#45;&gt;17</title>
<path fill="none" stroke="grey" stroke-width="2" d="M118.285,-1007.87C128.804,-981.531 147,-929.288 147,-883 147,-883 147,-883 147,-737 147,-695.974 160.23,-649.972 169.936,-621.743"/>
<polygon fill="grey" stroke="grey" stroke-width="2" points="173.281,-622.784 173.322,-612.189 166.683,-620.446 173.281,-622.784"/>
</g>
<!-- 19 -->
<g id="node20" class="node"><title>19</title>
<path fill="none" stroke="#c6d856" stroke-width="2" d="M231.5,-468C231.5,-468 174.5,-468 174.5,-468 168.5,-468 162.5,-462 162.5,-456 162.5,-456 162.5,-444 162.5,-444 162.5,-438 168.5,-432 174.5,-432 174.5,-432 231.5,-432 231.5,-432 237.5,-432 243.5,-438 243.5,-444 243.5,-444 243.5,-456 243.5,-456 243.5,-462 237.5,-468 231.5,-468"/>
<text text-anchor="middle" x="203" y="-447.5" font-family="sans" font-size="10.00">indelrealigner</text>
</g>
<!-- 1&#45;&gt;19 -->
<g id="edge25" class="edge"><title>1&#45;&gt;19</title>
<path fill="none" stroke="grey" stroke-width="2" d="M103.917,-1007.85C93.6901,-981.487 76,-929.211 76,-883 76,-883 76,-883 76,-593 76,-540.028 125.709,-497.758 162.928,-473.532"/>
<polygon fill="grey" stroke="grey" stroke-width="2" points="165.016,-476.353 171.607,-468.057 161.282,-470.432 165.016,-476.353"/>
</g>
<!-- 21 -->
<g id="node22" class="node"><title>21</title>
<path fill="none" stroke="#568ad8" stroke-width="2" d="M333,-540C333,-540 235,-540 235,-540 229,-540 223,-534 223,-528 223,-528 223,-516 223,-516 223,-510 229,-504 235,-504 235,-504 333,-504 333,-504 339,-504 345,-510 345,-516 345,-516 345,-528 345,-528 345,-534 339,-540 333,-540"/>
<text text-anchor="middle" x="284" y="-519.5" font-family="sans" font-size="10.00">realignertargetcreator</text>
</g>
<!-- 1&#45;&gt;21 -->
<g id="edge30" class="edge"><title>1&#45;&gt;21</title>
<path fill="none" stroke="grey" stroke-width="2" d="M161.97,-1007.85C213.001,-987.079 284,-946.725 284,-883 284,-883 284,-883 284,-665 284,-624.996 284,-578.653 284,-550.08"/>
<polygon fill="grey" stroke="grey" stroke-width="2" points="287.5,-550.049 284,-540.049 280.5,-550.049 287.5,-550.049"/>
</g>
<!-- 22 -->
<g id="node23" class="node"><title>22</title>
<path fill="none" stroke="#68d856" stroke-width="2" d="M618,-972C618,-972 588,-972 588,-972 582,-972 576,-966 576,-960 576,-960 576,-948 576,-948 576,-942 582,-936 588,-936 588,-936 618,-936 618,-936 624,-936 630,-942 630,-948 630,-948 630,-960 630,-960 630,-966 624,-972 618,-972"/>
<text text-anchor="middle" x="603" y="-951.5" font-family="sans" font-size="10.00">bowtie2</text>
</g>
<!-- 1&#45;&gt;22 -->
<g id="edge33" class="edge"><title>1&#45;&gt;22</title>
<path fill="none" stroke="grey" stroke-width="2" d="M175.068,-1015.88C279.262,-1001.06 482.18,-972.19 565.706,-960.306"/>
<polygon fill="grey" stroke="grey" stroke-width="2" points="566.344,-963.751 575.751,-958.877 565.358,-956.82 566.344,-963.751"/>
</g>
<!-- 2&#45;&gt;24 -->
<g id="edge36" class="edge"><title>2&#45;&gt;24</title>
<path fill="none" stroke="grey" stroke-width="2" d="M604.854,-71.6966C600.597,-63.6436 595.444,-53.8945 590.734,-44.9824"/>
<polygon fill="grey" stroke="grey" stroke-width="2" points="593.808,-43.3097 586.041,-36.1043 587.62,-46.5809 593.808,-43.3097"/>
</g>
<!-- 3 -->
<g id="node4" class="node"><title>3</title>
<path fill="none" stroke="#d88d56" stroke-width="2" d="M430,-612C430,-612 362,-612 362,-612 356,-612 350,-606 350,-600 350,-600 350,-588 350,-588 350,-582 356,-576 362,-576 362,-576 430,-576 430,-576 436,-576 442,-582 442,-588 442,-588 442,-600 442,-600 442,-606 436,-612 430,-612"/>
<text text-anchor="middle" x="396" y="-591.5" font-family="sans" font-size="10.00">samtools_index</text>
</g>
<!-- 3&#45;&gt;21 -->
<g id="edge31" class="edge"><title>3&#45;&gt;21</title>
<path fill="none" stroke="grey" stroke-width="2" d="M368.602,-575.876C354.093,-566.808 336.084,-555.552 320.415,-545.759"/>
<polygon fill="grey" stroke="grey" stroke-width="2" points="321.839,-542.522 311.504,-540.19 318.129,-548.458 321.839,-542.522"/>
</g>
<!-- 3&#45;&gt;24 -->
<g id="edge37" class="edge"><title>3&#45;&gt;24</title>
<path fill="none" stroke="grey" stroke-width="2" d="M407.81,-575.958C424.506,-550.158 453,-499.082 453,-451 453,-451 453,-451 453,-161 453,-106.914 504.67,-63.4849 541.302,-39.4912"/>
<polygon fill="grey" stroke="grey" stroke-width="2" points="543.224,-42.4166 549.788,-34.0998 539.47,-36.5082 543.224,-42.4166"/>
</g>
<!-- 4 -->
<g id="node5" class="node"><title>4</title>
<path fill="none" stroke="#56d87b" stroke-width="2" d="M690.5,-1116C690.5,-1116 635.5,-1116 635.5,-1116 629.5,-1116 623.5,-1110 623.5,-1104 623.5,-1104 623.5,-1092 623.5,-1092 623.5,-1086 629.5,-1080 635.5,-1080 635.5,-1080 690.5,-1080 690.5,-1080 696.5,-1080 702.5,-1086 702.5,-1092 702.5,-1092 702.5,-1104 702.5,-1104 702.5,-1110 696.5,-1116 690.5,-1116"/>
<text text-anchor="middle" x="663" y="-1095.5" font-family="sans" font-size="10.00">trimmomatic</text>
</g>
<!-- 6 -->
<g id="node7" class="node"><title>6</title>
<path fill="none" stroke="#56d88a" stroke-width="2" d="M730,-1044C730,-1044 700,-1044 700,-1044 694,-1044 688,-1038 688,-1032 688,-1032 688,-1020 688,-1020 688,-1014 694,-1008 700,-1008 700,-1008 730,-1008 730,-1008 736,-1008 742,-1014 742,-1020 742,-1020 742,-1032 742,-1032 742,-1038 736,-1044 730,-1044"/>
<text text-anchor="middle" x="715" y="-1023.5" font-family="sans" font-size="10.00">spades</text>
</g>
<!-- 4&#45;&gt;6 -->
<g id="edge7" class="edge"><title>4&#45;&gt;6</title>
<path fill="none" stroke="grey" stroke-width="2" d="M675.854,-1079.7C682.025,-1071.39 689.537,-1061.28 696.324,-1052.14"/>
<polygon fill="grey" stroke="grey" stroke-width="2" points="699.14,-1054.22 702.294,-1044.1 693.521,-1050.04 699.14,-1054.22"/>
</g>
<!-- 15 -->
<g id="node16" class="node"><title>15</title>
<path fill="none" stroke="#d87d56" stroke-width="2" d="M638.5,-1044C638.5,-1044 585.5,-1044 585.5,-1044 579.5,-1044 573.5,-1038 573.5,-1032 573.5,-1032 573.5,-1020 573.5,-1020 573.5,-1014 579.5,-1008 585.5,-1008 585.5,-1008 638.5,-1008 638.5,-1008 644.5,-1008 650.5,-1014 650.5,-1020 650.5,-1020 650.5,-1032 650.5,-1032 650.5,-1038 644.5,-1044 638.5,-1044"/>
<text text-anchor="middle" x="612" y="-1023.5" font-family="sans" font-size="10.00">iget_location</text>
</g>
<!-- 4&#45;&gt;15 -->
<g id="edge20" class="edge"><title>4&#45;&gt;15</title>
<path fill="none" stroke="grey" stroke-width="2" d="M650.393,-1079.7C644.403,-1071.47 637.124,-1061.48 630.521,-1052.42"/>
<polygon fill="grey" stroke="grey" stroke-width="2" points="633.179,-1050.13 624.462,-1044.1 627.522,-1054.25 633.179,-1050.13"/>
</g>
<!-- 5 -->
<g id="node6" class="node"><title>5</title>
<path fill="none" stroke="#d8a456" stroke-width="2" d="M447,-684C447,-684 337,-684 337,-684 331,-684 325,-678 325,-672 325,-672 325,-660 325,-660 325,-654 331,-648 337,-648 337,-648 447,-648 447,-648 453,-648 459,-654 459,-660 459,-660 459,-672 459,-672 459,-678 453,-684 447,-684"/>
<text text-anchor="middle" x="392" y="-663.5" font-family="sans" font-size="10.00">addorreplacereadgroups</text>
</g>
<!-- 5&#45;&gt;3 -->
<g id="edge4" class="edge"><title>5&#45;&gt;3</title>
<path fill="none" stroke="grey" stroke-width="2" d="M392.989,-647.697C393.43,-639.983 393.959,-630.712 394.451,-622.112"/>
<polygon fill="grey" stroke="grey" stroke-width="2" points="397.946,-622.288 395.023,-612.104 390.958,-621.888 397.946,-622.288"/>
</g>
<!-- 5&#45;&gt;19 -->
<g id="edge27" class="edge"><title>5&#45;&gt;19</title>
<path fill="none" stroke="grey" stroke-width="2" d="M419.8,-647.872C431.771,-638.837 444.495,-626.587 451,-612 457.516,-597.387 458.191,-590.293 451,-576 413.744,-501.948 314.671,-470.982 253.618,-458.629"/>
<polygon fill="grey" stroke="grey" stroke-width="2" points="254.274,-455.192 243.792,-456.735 252.949,-462.065 254.274,-455.192"/>
</g>
<!-- 5&#45;&gt;21 -->
<g id="edge32" class="edge"><title>5&#45;&gt;21</title>
<path fill="none" stroke="grey" stroke-width="2" d="M373.611,-647.652C363.475,-637.669 350.965,-624.632 341,-612 325.057,-591.789 309.469,-567 298.635,-548.721"/>
<polygon fill="grey" stroke="grey" stroke-width="2" points="301.643,-546.932 293.573,-540.068 295.601,-550.467 301.643,-546.932"/>
</g>
<!-- 11 -->
<g id="node12" class="node"><title>11</title>
<path fill="none" stroke="#b6d856" stroke-width="2" d="M751.5,-900C751.5,-900 698.5,-900 698.5,-900 692.5,-900 686.5,-894 686.5,-888 686.5,-888 686.5,-876 686.5,-876 686.5,-870 692.5,-864 698.5,-864 698.5,-864 751.5,-864 751.5,-864 757.5,-864 763.5,-870 763.5,-876 763.5,-876 763.5,-888 763.5,-888 763.5,-894 757.5,-900 751.5,-900"/>
<text text-anchor="middle" x="725" y="-879.5" font-family="sans" font-size="10.00">filter_contigs</text>
</g>
<!-- 6&#45;&gt;11 -->
<g id="edge16" class="edge"><title>6&#45;&gt;11</title>
<path fill="none" stroke="grey" stroke-width="2" d="M716.206,-1007.87C717.911,-983.67 721.041,-939.211 723.071,-910.393"/>
<polygon fill="grey" stroke="grey" stroke-width="2" points="726.578,-910.41 723.789,-900.189 719.596,-909.919 726.578,-910.41"/>
</g>
<!-- 18 -->
<g id="node19" class="node"><title>18</title>
<path fill="none" stroke="#56a2d8" stroke-width="2" d="M234,-324C234,-324 204,-324 204,-324 198,-324 192,-318 192,-312 192,-312 192,-300 192,-300 192,-294 198,-288 204,-288 204,-288 234,-288 234,-288 240,-288 246,-294 246,-300 246,-300 246,-312 246,-312 246,-318 240,-324 234,-324"/>
<text text-anchor="middle" x="219" y="-303.5" font-family="sans" font-size="10.00">varscan</text>
</g>
<!-- 7&#45;&gt;18 -->
<g id="edge23" class="edge"><title>7&#45;&gt;18</title>
<path fill="none" stroke="grey" stroke-width="2" d="M206.955,-359.697C208.718,-351.983 210.837,-342.712 212.803,-334.112"/>
<polygon fill="grey" stroke="grey" stroke-width="2" points="216.274,-334.633 215.09,-324.104 209.45,-333.073 216.274,-334.633"/>
</g>
<!-- 8 -->
<g id="node9" class="node"><title>8</title>
<path fill="none" stroke="#56d8a2" stroke-width="2" d="M559.5,-756C559.5,-756 464.5,-756 464.5,-756 458.5,-756 452.5,-750 452.5,-744 452.5,-744 452.5,-732 452.5,-732 452.5,-726 458.5,-720 464.5,-720 464.5,-720 559.5,-720 559.5,-720 565.5,-720 571.5,-726 571.5,-732 571.5,-732 571.5,-744 571.5,-744 571.5,-750 565.5,-756 559.5,-756"/>
<text text-anchor="middle" x="512" y="-735.5" font-family="sans" font-size="10.00">bedtools_genomecov</text>
</g>
<!-- 13 -->
<g id="node14" class="node"><title>13</title>
<path fill="none" stroke="#9fd856" stroke-width="2" d="M536.5,-540C536.5,-540 493.5,-540 493.5,-540 487.5,-540 481.5,-534 481.5,-528 481.5,-528 481.5,-516 481.5,-516 481.5,-510 487.5,-504 493.5,-504 493.5,-504 536.5,-504 536.5,-504 542.5,-504 548.5,-510 548.5,-516 548.5,-516 548.5,-528 548.5,-528 548.5,-534 542.5,-540 536.5,-540"/>
<text text-anchor="middle" x="515" y="-519.5" font-family="sans" font-size="10.00">extractline</text>
</g>
<!-- 8&#45;&gt;13 -->
<g id="edge18" class="edge"><title>8&#45;&gt;13</title>
<path fill="none" stroke="grey" stroke-width="2" d="M512.24,-719.849C512.759,-682.832 513.988,-595.181 514.616,-550.386"/>
<polygon fill="grey" stroke="grey" stroke-width="2" points="518.118,-550.281 514.758,-540.232 511.118,-550.182 518.118,-550.281"/>
</g>
<!-- 9 -->
<g id="node10" class="node"><title>9</title>
<path fill="none" stroke="#d6d856" stroke-width="2" d="M321,-180C321,-180 291,-180 291,-180 285,-180 279,-174 279,-168 279,-168 279,-156 279,-156 279,-150 285,-144 291,-144 291,-144 321,-144 321,-144 327,-144 333,-150 333,-156 333,-156 333,-168 333,-168 333,-174 327,-180 321,-180"/>
<text text-anchor="middle" x="306" y="-159.5" font-family="sans" font-size="10.00">tabix</text>
</g>
<!-- 9&#45;&gt;10 -->
<g id="edge12" class="edge"><title>9&#45;&gt;10</title>
<path fill="none" stroke="grey" stroke-width="2" d="M306,-143.697C306,-135.983 306,-126.712 306,-118.112"/>
<polygon fill="grey" stroke="grey" stroke-width="2" points="309.5,-118.104 306,-108.104 302.5,-118.104 309.5,-118.104"/>
</g>
<!-- 10&#45;&gt;24 -->
<g id="edge39" class="edge"><title>10&#45;&gt;24</title>
<path fill="none" stroke="grey" stroke-width="2" d="M361.168,-74.7501C414.546,-60.9623 493.955,-40.4507 540.099,-28.5315"/>
<polygon fill="grey" stroke="grey" stroke-width="2" points="541.166,-31.8711 549.973,-25.9813 539.415,-25.0935 541.166,-31.8711"/>
</g>
<!-- 11&#45;&gt;24 -->
<g id="edge40" class="edge"><title>11&#45;&gt;24</title>
<path fill="none" stroke="grey" stroke-width="2" d="M725,-863.951C725,-837.292 725,-784.115 725,-739 725,-739 725,-739 725,-161 725,-117.99 716.714,-103.096 687,-72 667.138,-51.2137 637.447,-37.5763 613.917,-29.3472"/>
<polygon fill="grey" stroke="grey" stroke-width="2" points="614.849,-25.9692 604.256,-26.1465 612.648,-32.614 614.849,-25.9692"/>
</g>
<!-- 12 -->
<g id="node13" class="node"><title>12</title>
<path fill="none" stroke="#56d8c9" stroke-width="2" d="M617.5,-900C617.5,-900 512.5,-900 512.5,-900 506.5,-900 500.5,-894 500.5,-888 500.5,-888 500.5,-876 500.5,-876 500.5,-870 506.5,-864 512.5,-864 512.5,-864 617.5,-864 617.5,-864 623.5,-864 629.5,-870 629.5,-876 629.5,-876 629.5,-888 629.5,-888 629.5,-894 623.5,-900 617.5,-900"/>
<text text-anchor="middle" x="565" y="-879.5" font-family="sans" font-size="10.00">samtools_sam_to_bam</text>
</g>
<!-- 16 -->
<g id="node17" class="node"><title>16</title>
<path fill="none" stroke="#56c9d8" stroke-width="2" d="M609,-180C609,-180 531,-180 531,-180 525,-180 519,-174 519,-168 519,-168 519,-156 519,-156 519,-150 525,-144 531,-144 531,-144 609,-144 609,-144 615,-144 621,-150 621,-156 621,-156 621,-168 621,-168 621,-174 615,-180 609,-180"/>
<text text-anchor="middle" x="570" y="-159.5" font-family="sans" font-size="10.00">samtools_flagstat</text>
</g>
<!-- 12&#45;&gt;16 -->
<g id="edge21" class="edge"><title>12&#45;&gt;16</title>
<path fill="none" stroke="grey" stroke-width="2" d="M572.083,-863.848C582.31,-837.487 600,-785.211 600,-739 600,-739 600,-739 600,-305 600,-264.157 587.973,-218.106 579.149,-189.817"/>
<polygon fill="grey" stroke="grey" stroke-width="2" points="582.463,-188.69 576.071,-180.24 575.799,-190.832 582.463,-188.69"/>
</g>
<!-- 20 -->
<g id="node21" class="node"><title>20</title>
<path fill="none" stroke="#78d856" stroke-width="2" d="M542.5,-828C542.5,-828 481.5,-828 481.5,-828 475.5,-828 469.5,-822 469.5,-816 469.5,-816 469.5,-804 469.5,-804 469.5,-798 475.5,-792 481.5,-792 481.5,-792 542.5,-792 542.5,-792 548.5,-792 554.5,-798 554.5,-804 554.5,-804 554.5,-816 554.5,-816 554.5,-822 548.5,-828 542.5,-828"/>
<text text-anchor="middle" x="512" y="-807.5" font-family="sans" font-size="10.00">samtools_sort</text>
</g>
<!-- 12&#45;&gt;20 -->
<g id="edge28" class="edge"><title>12&#45;&gt;20</title>
<path fill="none" stroke="grey" stroke-width="2" d="M551.899,-863.697C545.609,-855.389 537.953,-845.277 531.035,-836.141"/>
<polygon fill="grey" stroke="grey" stroke-width="2" points="533.777,-833.964 524.95,-828.104 528.196,-838.19 533.777,-833.964"/>
</g>
<!-- 13&#45;&gt;10 -->
<g id="edge15" class="edge"><title>13&#45;&gt;10</title>
<path fill="none" stroke="grey" stroke-width="2" d="M510.143,-503.671C503.13,-477.079 491,-424.504 491,-379 491,-379 491,-379 491,-233 491,-170.551 423.844,-131.806 370.455,-110.871"/>
<polygon fill="grey" stroke="grey" stroke-width="2" points="371.597,-107.561 361.005,-107.292 369.117,-114.107 371.597,-107.561"/>
</g>
<!-- 14 -->
<g id="node15" class="node"><title>14</title>
<path fill="none" stroke="#56d8d8" stroke-width="2" d="M266,-252C266,-252 236,-252 236,-252 230,-252 224,-246 224,-240 224,-240 224,-228 224,-228 224,-222 230,-216 236,-216 236,-216 266,-216 266,-216 272,-216 278,-222 278,-228 278,-228 278,-240 278,-240 278,-246 272,-252 266,-252"/>
<text text-anchor="middle" x="251" y="-231.5" font-family="sans" font-size="10.00">bgzip</text>
</g>
<!-- 14&#45;&gt;9 -->
<g id="edge11" class="edge"><title>14&#45;&gt;9</title>
<path fill="none" stroke="grey" stroke-width="2" d="M264.596,-215.697C271.123,-207.389 279.068,-197.277 286.247,-188.141"/>
<polygon fill="grey" stroke="grey" stroke-width="2" points="289.135,-190.13 292.561,-180.104 283.631,-185.805 289.135,-190.13"/>
</g>
<!-- 14&#45;&gt;10 -->
<g id="edge14" class="edge"><title>14&#45;&gt;10</title>
<path fill="none" stroke="grey" stroke-width="2" d="M252.697,-215.674C254.95,-197.29 259.888,-167.685 270,-144 274.084,-134.433 279.988,-124.784 285.838,-116.388"/>
<polygon fill="grey" stroke="grey" stroke-width="2" points="288.78,-118.294 291.835,-108.149 283.12,-114.174 288.78,-118.294"/>
</g>
<!-- 15&#45;&gt;22 -->
<g id="edge34" class="edge"><title>15&#45;&gt;22</title>
<path fill="none" stroke="grey" stroke-width="2" d="M609.775,-1007.7C608.783,-999.983 607.592,-990.712 606.486,-982.112"/>
<polygon fill="grey" stroke="grey" stroke-width="2" points="609.946,-981.576 605.199,-972.104 603.003,-982.469 609.946,-981.576"/>
</g>
<!-- 16&#45;&gt;2 -->
<g id="edge3" class="edge"><title>16&#45;&gt;2</title>
<path fill="none" stroke="grey" stroke-width="2" d="M580.876,-143.697C585.992,-135.559 592.195,-125.689 597.845,-116.701"/>
<polygon fill="grey" stroke="grey" stroke-width="2" points="600.89,-118.433 603.249,-108.104 594.964,-114.708 600.89,-118.433"/>
</g>
<!-- 16&#45;&gt;24 -->
<g id="edge38" class="edge"><title>16&#45;&gt;24</title>
<path fill="none" stroke="grey" stroke-width="2" d="M565.371,-143.879C561.145,-125.916 556.107,-96.886 560,-72 561.359,-63.3122 563.9,-54.1039 566.611,-45.843"/>
<polygon fill="grey" stroke="grey" stroke-width="2" points="569.939,-46.9297 569.934,-36.3349 563.331,-44.6203 569.939,-46.9297"/>
</g>
<!-- 17&#45;&gt;19 -->
<g id="edge24" class="edge"><title>17&#45;&gt;19</title>
<path fill="none" stroke="grey" stroke-width="2" d="M182.774,-575.871C186.694,-551.67 193.895,-507.211 198.563,-478.393"/>
<polygon fill="grey" stroke="grey" stroke-width="2" points="202.072,-478.62 200.216,-468.189 195.162,-477.501 202.072,-478.62"/>
</g>
<!-- 17&#45;&gt;21 -->
<g id="edge29" class="edge"><title>17&#45;&gt;21</title>
<path fill="none" stroke="grey" stroke-width="2" d="M205.441,-575.876C218.787,-566.893 235.324,-555.763 249.778,-546.034"/>
<polygon fill="grey" stroke="grey" stroke-width="2" points="252.119,-548.677 258.461,-540.19 248.211,-542.87 252.119,-548.677"/>
</g>
<!-- 18&#45;&gt;14 -->
<g id="edge19" class="edge"><title>18&#45;&gt;14</title>
<path fill="none" stroke="grey" stroke-width="2" d="M226.91,-287.697C230.553,-279.728 234.954,-270.1 238.994,-261.264"/>
<polygon fill="grey" stroke="grey" stroke-width="2" points="242.206,-262.654 243.181,-252.104 235.84,-259.744 242.206,-262.654"/>
</g>
<!-- 19&#45;&gt;7 -->
<g id="edge9" class="edge"><title>19&#45;&gt;7</title>
<path fill="none" stroke="grey" stroke-width="2" d="M203,-431.697C203,-423.983 203,-414.712 203,-406.112"/>
<polygon fill="grey" stroke="grey" stroke-width="2" points="206.5,-406.104 203,-396.104 199.5,-406.104 206.5,-406.104"/>
</g>
<!-- 20&#45;&gt;8 -->
<g id="edge10" class="edge"><title>20&#45;&gt;8</title>
<path fill="none" stroke="grey" stroke-width="2" d="M512,-791.697C512,-783.983 512,-774.712 512,-766.112"/>
<polygon fill="grey" stroke="grey" stroke-width="2" points="515.5,-766.104 512,-756.104 508.5,-766.104 515.5,-766.104"/>
</g>
<!-- 25 -->
<g id="node26" class="node"><title>25</title>
<path fill="none" stroke="#59d856" stroke-width="2" d="M422,-756C422,-756 356,-756 356,-756 350,-756 344,-750 344,-744 344,-744 344,-732 344,-732 344,-726 350,-720 356,-720 356,-720 422,-720 422,-720 428,-720 434,-726 434,-732 434,-732 434,-744 434,-744 434,-750 428,-756 422,-756"/>
<text text-anchor="middle" x="389" y="-735.5" font-family="sans" font-size="10.00">markduplicates</text>
</g>
<!-- 20&#45;&gt;25 -->
<g id="edge41" class="edge"><title>20&#45;&gt;25</title>
<path fill="none" stroke="grey" stroke-width="2" d="M481.911,-791.876C465.68,-782.639 445.458,-771.131 428.029,-761.212"/>
<polygon fill="grey" stroke="grey" stroke-width="2" points="429.627,-758.094 419.205,-756.19 426.165,-764.178 429.627,-758.094"/>
</g>
<!-- 21&#45;&gt;19 -->
<g id="edge26" class="edge"><title>21&#45;&gt;19</title>
<path fill="none" stroke="grey" stroke-width="2" d="M263.978,-503.697C253.874,-494.965 241.464,-484.24 230.482,-474.75"/>
<polygon fill="grey" stroke="grey" stroke-width="2" points="232.647,-471.995 222.792,-468.104 228.07,-477.291 232.647,-471.995"/>
</g>
<!-- 22&#45;&gt;0 -->
<g id="edge1" class="edge"><title>22&#45;&gt;0</title>
<path fill="none" stroke="grey" stroke-width="2" d="M616.701,-935.769C623.996,-925.823 632.56,-912.784 638,-900 653.875,-862.695 658,-851.542 658,-811 658,-811 658,-811 658,-377 658,-336.995 658.402,-290.652 658.696,-262.079"/>
<polygon fill="grey" stroke="grey" stroke-width="2" points="662.196,-262.086 658.802,-252.049 655.196,-262.011 662.196,-262.086"/>
</g>
<!-- 22&#45;&gt;12 -->
<g id="edge17" class="edge"><title>22&#45;&gt;12</title>
<path fill="none" stroke="grey" stroke-width="2" d="M593.607,-935.697C589.235,-927.644 583.943,-917.894 579.105,-908.982"/>
<polygon fill="grey" stroke="grey" stroke-width="2" points="582.132,-907.223 574.285,-900.104 575.98,-910.563 582.132,-907.223"/>
</g>
<!-- 23 -->
<g id="node24" class="node"><title>23</title>
<path fill="none" stroke="#56b1d8" stroke-width="2" d="M691,-1188C691,-1188 635,-1188 635,-1188 629,-1188 623,-1182 623,-1176 623,-1176 623,-1164 623,-1164 623,-1158 629,-1152 635,-1152 635,-1152 691,-1152 691,-1152 697,-1152 703,-1158 703,-1164 703,-1164 703,-1176 703,-1176 703,-1182 697,-1188 691,-1188"/>
<text text-anchor="middle" x="663" y="-1167.5" font-family="sans" font-size="10.00">iget_samples</text>
</g>
<!-- 23&#45;&gt;4 -->
<g id="edge5" class="edge"><title>23&#45;&gt;4</title>
<path fill="none" stroke="grey" stroke-width="2" d="M663,-1151.7C663,-1143.98 663,-1134.71 663,-1126.11"/>
<polygon fill="grey" stroke="grey" stroke-width="2" points="666.5,-1126.1 663,-1116.1 659.5,-1126.1 666.5,-1126.1"/>
</g>
<!-- 25&#45;&gt;5 -->
<g id="edge6" class="edge"><title>25&#45;&gt;5</title>
<path fill="none" stroke="grey" stroke-width="2" d="M389.742,-719.697C390.072,-711.983 390.469,-702.712 390.838,-694.112"/>
<polygon fill="grey" stroke="grey" stroke-width="2" points="394.335,-694.245 391.267,-684.104 387.342,-693.945 394.335,-694.245"/>
</g>
</g>
</svg>
